<svg xmlns="http://www.w3.org/2000/svg" xmlns:svg="http://www.w3.org/2000/svg" id="svg860" width="61.44" height="61.44" version="1.1" viewBox="0 0 61.44 61.44"><metadata id="metadata866"/><g id="g868"><path id="path1437" d="M 27.04,58.547826 C 17.531896,57.092018 9.578907,51.381993 5.4405257,43.039999 3.3437811,38.813462 2.5644838,35.475212 2.5644838,30.719999 2.5644838,25.964786 3.3437811,22.626538 5.4405257,18.4 9.7314619,9.7504936 17.804806,4.1325772 27.782722,2.8529609 34.332601,2.0129727 41.9311,4.2432335 47.839999,8.7400383 52.567257,12.337588 56.49677,18.442061 57.97198,24.48 61.122914,37.376579 53.779394,51.481186 41.286703,56.527209 36.751321,58.359132 31.070155,59.164892 27.04,58.547826 Z" style="display:inline;fill:#f5f5f5;fill-opacity:1;stroke-width:.32"/><path id="path1435" d="m 32.959999,42.635292 c -0.347033,-0.390672 -0.473257,-1.251587 -0.455657,-3.107827 0.03037,-3.203405 0.513456,-4.939094 1.740182,-6.25231 0.525511,-0.56256 0.955475,-1.113543 0.955475,-1.224404 0,-0.363319 -1.699968,-3.570761 -1.892326,-3.570375 -1.130285,0.0023 -4.911873,0.998109 -5.312841,1.399077 -0.286301,0.2863 -0.798261,0.520547 -1.13769,0.520547 -0.459623,0 -0.617448,0.22461 -0.618339,0.879999 -0.0016,1.161306 -0.928378,2.632164 -2.82694,4.486439 -2.294941,2.241405 -3.035915,3.630653 -2.771428,5.196137 0.224933,1.33137 -0.03117,1.552535 -1.254263,1.083188 -0.966028,-0.370698 -0.439465,-3.252813 0.933828,-5.111255 0.827368,-1.119657 2.426383,-2.694509 2.735852,-2.694509 0.313185,0 1.368055,-1.796156 1.823743,-3.105341 0.317678,-0.91268 0.286818,-1.047581 -0.280858,-1.227755 C 24.247974,29.795576 23.80265,29.356979 23.609128,28.932244 23.415606,28.50751 23.067128,28.16 22.834731,28.16 c -0.232396,0 -0.514222,-0.365298 -0.62628,-0.811774 C 21.664733,25.181882 23.456163,22.72 25.576258,22.72 c 1.927588,0 3.314607,1.223313 3.90035,3.44 0.25447,0.963018 0.527456,1.36 0.935208,1.36 1.371579,0 1.496699,-0.247454 1.342657,-2.655415 -0.134133,-2.096772 -0.05163,-2.513789 0.914982,-4.624585 1.190746,-2.600257 1.735536,-2.865515 3.025824,-1.473273 1.046039,1.128695 0.989063,1.495903 -0.204921,1.320664 -0.713485,-0.104717 -1.033882,-0.0032 -1.148186,0.36368 -0.0872,0.279911 -0.447497,1.056797 -0.800662,1.726413 -0.803936,1.524308 -0.640538,2.25429 1.160051,5.182516 2.242781,3.647342 2.807206,6.41318 1.968502,9.646188 -0.576752,2.223261 -0.667945,4.273811 -0.190064,4.273811 0.176,0 0.32,0.36 0.32,0.8 0,0.837988 -0.689827,1.062627 -1.563696,0.50921 -0.656918,-0.416026 -0.790384,-3.091958 -0.276774,-5.54921 0.460787,-2.204521 0.278957,-2.86342 -0.353226,-1.28 -0.843977,2.113898 -1.020748,3.869376 -0.531161,5.274848 0.261549,0.750832 0.477638,1.545152 0.480201,1.765152 0.0067,0.576743 -1.031977,0.469507 -1.595344,-0.164707 z M 27.032615,28.745139 c 1.603473,-0.730591 1.286613,-3.355407 -0.517689,-4.288448 -0.807837,-0.417749 -1.02253,-0.417482 -1.834253,0.0023 C 23.16091,25.244866 23.138478,27.2 24.649224,27.2 c 0.413314,0 0.52467,-0.176627 0.403495,-0.64 -0.126165,-0.482455 -0.0098,-0.64 0.472636,-0.64 1.196625,0 1.044421,2.535188 -0.155044,2.582491 -0.499521,0.0197 -0.490871,0.05663 0.06969,0.297509 0.352,0.151259 0.669224,0.285138 0.704943,0.297508 0.03572,0.01237 0.435171,-0.146196 0.887672,-0.352369 z m -1.720034,12.247443 c -1.033655,-1.033655 -1.128152,-2.407549 -0.322549,-4.689517 1.101267,-3.119472 2.451806,-2.639747 1.408809,0.500422 -0.62029,1.86752 -0.449111,3.045962 0.477658,3.288317 0.386174,0.100986 0.643501,0.436186 0.643501,0.838237 0,0.876054 -1.355502,0.914458 -2.207419,0.06254 z M 38.079999,26.713139 c 0,-0.267773 0.344122,-0.643652 0.764714,-0.835287 1.225712,-0.558471 1.557776,-1.664301 1.09609,-3.650135 -0.3789,-1.629733 -0.435504,-1.696777 -1.288557,-1.526167 -0.749655,0.149931 -0.892247,0.07109 -0.892247,-0.493333 0,-0.42026 0.353485,-0.854576 0.944109,-1.16 1.366173,-0.706475 1.897463,-0.608117 2.11625,0.391783 0.105904,0.484 0.324649,1.297488 0.486099,1.807751 0.161446,0.510263 0.293542,1.604906 0.293542,2.432539 0,1.236388 -0.171728,1.684484 -0.962784,2.512249 -1.030553,1.078376 -2.557216,1.389175 -2.557216,0.5206 z m -2.76431,-1.913218 c -0.290906,-0.758092 0.34551,-1.234178 1.322144,-0.989059 0.568941,0.142796 0.810739,0.391083 0.740691,0.760571 -0.141833,0.74814 -1.793235,0.931056 -2.062835,0.228488 z M 37.439999,22.56 c 0,-0.692756 0.129383,-0.826138 0.72,-0.742257 0.472583,0.06712 0.72,0.322184 0.72,0.742257 0,0.420072 -0.247417,0.675139 -0.72,0.742256 -0.590617,0.08388 -0.72,-0.0495 -0.72,-0.742256 z m -2.822256,-0.24 c 0.06712,-0.472581 0.322183,-0.72 0.742256,-0.72 0.420074,0 0.67514,0.247419 0.742256,0.72 0.08388,0.590617 -0.0495,0.72 -0.742256,0.72 -0.692755,0 -0.826137,-0.129383 -0.742256,-0.72 z" style="display:inline;fill:#282c34;stroke-width:.32;fill-opacity:1"/></g></svg>