<?xml version="1.0" encoding="UTF-8" standalone="no"?>
<svg
   xmlns:dc="http://purl.org/dc/elements/1.1/"
   xmlns:cc="http://creativecommons.org/ns#"
   xmlns:rdf="http://www.w3.org/1999/02/22-rdf-syntax-ns#"
   xmlns:svg="http://www.w3.org/2000/svg"
   xmlns="http://www.w3.org/2000/svg"
   xmlns:sodipodi="http://sodipodi.sourceforge.net/DTD/sodipodi-0.dtd"
   xmlns:inkscape="http://www.inkscape.org/namespaces/inkscape"
   inkscape:export-ydpi="300"
   inkscape:export-xdpi="300"
   inkscape:export-filename="C:\Users\kiera\Documents\GitHub\blackc4t\images\shorticons\otp.png"
   inkscape:version="1.0 (4035a4fb49, 2020-05-01)"
   sodipodi:docname="otp.svg"
   viewBox="0 0 61.439999 61.439999"
   height="61.439999"
   width="61.439999"
   id="svg1439"
   version="1.1">
  <metadata
     id="metadata1445">
    <rdf:RDF>
      <cc:Work
         rdf:about="">
        <dc:format>image/svg+xml</dc:format>
        <dc:type
           rdf:resource="http://purl.org/dc/dcmitype/StillImage" />
        <dc:title></dc:title>
      </cc:Work>
    </rdf:RDF>
  </metadata>
  <defs
     id="defs1443" />
  <sodipodi:namedview
     inkscape:current-layer="g1447"
     inkscape:window-maximized="1"
     inkscape:window-y="-9"
     inkscape:window-x="-9"
     inkscape:cy="30.719999"
     inkscape:cx="30.719999"
     inkscape:zoom="13.509115"
     showgrid="false"
     id="namedview1441"
     inkscape:window-height="1001"
     inkscape:window-width="1920"
     inkscape:pageshadow="2"
     inkscape:pageopacity="0"
     guidetolerance="10"
     gridtolerance="10"
     objecttolerance="10"
     borderopacity="1"
     bordercolor="#666666"
     pagecolor="#ffffff" />
  <g
     id="g1447"
     inkscape:label="Image"
     inkscape:groupmode="layer">
    <path
       id="path2014"
       d="M 26.029303,58.428636 C 15.423714,56.401983 7.2547791,49.422886 3.8009465,39.437926 2.7364233,36.360412 2.7224286,36.247417 2.7212222,30.719999 2.7200207,25.21494 2.737859,25.06846 3.7734035,22.08 5.31067,17.643627 7.3374191,14.422581 10.72,11.04 16.319005,5.4409942 22.740918,2.7613033 30.56,2.7613033 c 7.819081,0 14.240994,2.6796909 19.839999,8.2786967 3.381501,3.3815 5.450096,6.666886 6.850438,10.88 2.033802,6.118964 2.033802,11.481033 0,17.599999 -2.553423,7.682314 -8.716681,14.181674 -16.331727,17.222342 -4.650176,1.856804 -10.518908,2.521466 -14.889407,1.686295 z"
       style="fill:#f5f5f5;fill-opacity:1;stroke-width:0.32" />
    <path
       id="path2012"
       d="m 28.48,44.799999 c -0.919741,-0.919741 -0.849675,-2.699417 0.145454,-3.694544 1.719433,-1.719433 4.654545,-0.5087 4.654545,1.92 0,1.611194 -0.904979,2.414544 -2.719999,2.414544 -1.013334,0 -1.62963,-0.189629 -2.08,-0.64 z m -7.214546,-7.185456 c -1.725673,-1.72567 -0.50836,-4.654544 1.934546,-4.654544 1.560505,0 2.72,1.159495 2.72,2.72 0,0.793357 -0.243161,1.392253 -0.785455,1.934544 -0.542294,0.542295 -1.14119,0.785456 -1.934545,0.785456 -0.793356,0 -1.392252,-0.243161 -1.934546,-0.785456 z m 7.36,0 c -1.725673,-1.72567 -0.50836,-4.654544 1.934546,-4.654544 1.560505,0 2.719999,1.159495 2.719999,2.72 0,0.793357 -0.243161,1.392253 -0.785456,1.934544 -0.542292,0.542295 -1.141188,0.785456 -1.934543,0.785456 -0.793356,0 -1.392252,-0.243161 -1.934546,-0.785456 z m 7.360001,0 c -1.725673,-1.72567 -0.508361,-4.654544 1.934544,-4.654544 1.560506,0 2.72,1.159495 2.72,2.72 0,0.793357 -0.243161,1.392253 -0.785456,1.934544 -0.542291,0.542295 -1.141187,0.785456 -1.934544,0.785456 -0.793356,0 -1.392252,-0.243161 -1.934544,-0.785456 z M 21.265454,30.254545 C 19.539781,28.528872 20.757094,25.6 23.2,25.6 c 1.560505,0 2.72,1.159494 2.72,2.72 0,0.793355 -0.243161,1.392251 -0.785455,1.934545 -0.542294,0.542294 -1.14119,0.785454 -1.934545,0.785454 -0.793356,0 -1.392252,-0.24316 -1.934546,-0.785454 z m 7.36,0 C 26.899781,28.528872 28.117094,25.6 30.56,25.6 c 1.560505,0 2.719999,1.159494 2.719999,2.72 0,0.793355 -0.243161,1.392251 -0.785456,1.934545 -0.542292,0.542294 -1.141188,0.785454 -1.934543,0.785454 -0.793356,0 -1.392252,-0.24316 -1.934546,-0.785454 z m 7.360001,0 C 34.259782,28.528872 35.477094,25.6 37.919999,25.6 c 1.560506,0 2.72,1.159494 2.72,2.72 0,0.793355 -0.243161,1.392251 -0.785456,1.934545 -0.542291,0.542294 -1.141187,0.785454 -1.934544,0.785454 -0.793356,0 -1.392252,-0.24316 -1.934544,-0.785454 z m -14.720001,-7.36 C 19.539781,21.168873 20.757094,18.24 23.2,18.24 c 2.442905,0 3.660218,2.928873 1.934545,4.654545 C 24.592251,23.436839 23.993355,23.68 23.2,23.68 c -0.793356,0 -1.392252,-0.243161 -1.934546,-0.785455 z m 7.36,0 C 26.899781,21.168873 28.117094,18.24 30.56,18.24 c 2.442905,0 3.660217,2.928873 1.934543,4.654545 C 31.952251,23.436839 31.353355,23.68 30.56,23.68 c -0.793356,0 -1.392252,-0.243161 -1.934546,-0.785455 z m 7.360001,0 C 34.259782,21.168873 35.477094,18.24 37.919999,18.24 c 2.442906,0 3.660218,2.928873 1.934544,4.654545 C 39.312252,23.436839 38.713356,23.68 37.919999,23.68 c -0.793356,0 -1.392252,-0.243161 -1.934544,-0.785455 z"
       style="fill:#282c34;fill-opacity:1;stroke-width:0.32" />
  </g>
</svg>
