<?xml version="1.0" encoding="UTF-8" standalone="no"?>
<svg
   xmlns:dc="http://purl.org/dc/elements/1.1/"
   xmlns:cc="http://creativecommons.org/ns#"
   xmlns:rdf="http://www.w3.org/1999/02/22-rdf-syntax-ns#"
   xmlns:svg="http://www.w3.org/2000/svg"
   xmlns="http://www.w3.org/2000/svg"
   xmlns:sodipodi="http://sodipodi.sourceforge.net/DTD/sodipodi-0.dtd"
   xmlns:inkscape="http://www.inkscape.org/namespaces/inkscape"
   inkscape:export-ydpi="300"
   inkscape:export-xdpi="300"
   inkscape:export-filename="C:\Users\kiera\Documents\GitHub\blackc4t\images\shorticons\password.png"
   inkscape:version="1.0 (4035a4fb49, 2020-05-01)"
   sodipodi:docname="password.svg"
   viewBox="0 0 61.439999 61.439999"
   height="61.439999"
   width="61.439999"
   id="svg2016"
   version="1.1">
  <metadata
     id="metadata2022">
    <rdf:RDF>
      <cc:Work
         rdf:about="">
        <dc:format>image/svg+xml</dc:format>
        <dc:type
           rdf:resource="http://purl.org/dc/dcmitype/StillImage" />
        <dc:title></dc:title>
      </cc:Work>
    </rdf:RDF>
  </metadata>
  <defs
     id="defs2020" />
  <sodipodi:namedview
     inkscape:current-layer="g2024"
     inkscape:window-maximized="1"
     inkscape:window-y="-9"
     inkscape:window-x="-9"
     inkscape:cy="30.719999"
     inkscape:cx="30.719999"
     inkscape:zoom="13.509115"
     showgrid="false"
     id="namedview2018"
     inkscape:window-height="1001"
     inkscape:window-width="1920"
     inkscape:pageshadow="2"
     inkscape:pageopacity="0"
     guidetolerance="10"
     gridtolerance="10"
     objecttolerance="10"
     borderopacity="1"
     bordercolor="#666666"
     pagecolor="#ffffff" />
  <g
     id="g2024"
     inkscape:label="Image"
     inkscape:groupmode="layer">
    <path
       id="path2591"
       d="M 25.28,58.257929 C 14.07238,55.880277 5.9611033,48.254172 3.2197001,37.517158 c -0.9249997,-3.622867 -0.9249997,-9.971451 0,-13.594316 C 5.9847564,13.093187 14.091262,5.5205663 25.44,3.1659461 c 3.647242,-0.7567248 6.592758,-0.7567248 10.239999,0 C 47.092041,5.5337007 55.0003,12.92981 57.956725,24 c 1.0249,3.837692 1.0249,9.602307 0,13.439999 -2.983894,11.173043 -11.214953,18.751526 -22.740911,20.937965 -3.390245,0.64312 -6.51655,0.60535 -9.935814,-0.120035 z"
       style="fill:#f5f5f5;fill-opacity:1;stroke-width:0.32" />
    <path
       id="path2589"
       d="m 21.648829,40.206511 0.202737,-3.313484 -1.958164,-0.221543 c -2.713268,-0.306973 -2.939609,-0.694438 -2.91066,-4.982686 0.01251,-1.852839 0.133859,-4.638149 0.269668,-6.189578 0.364073,-4.159021 0.08318,-4.003925 8.216015,-4.536433 7.77271,-0.508929 16.808384,-0.695579 17.353824,-0.358478 0.275417,0.170216 0.37775,2.601663 0.37775,8.975394 0,10.046978 0.127466,9.617557 -2.821849,9.506402 -1.514291,-0.05708 -11.13323,-1.275072 -14.219147,-1.800499 -0.834488,-0.142087 -0.965566,0.01853 -2.482918,3.042195 -0.881056,1.755709 -1.743237,3.192198 -1.915957,3.192198 -0.198216,0 -0.239265,-1.222051 -0.111299,-3.313488 z m 2.481853,-3.349817 C 24.903714,35.361814 25.209476,35.260275 28,35.571727 c 2.534159,0.282842 11.022441,1.420535 12.719999,1.704874 l 0.88,0.147398 v -7.708986 -7.708987 l -6.16,0.2241 c -10.254193,0.373047 -16.258489,0.721732 -16.495359,0.957927 -0.123552,0.1232 -0.272536,2.645271 -0.331076,5.604602 l -0.106436,5.380602 2.266436,0.382285 2.266436,0.382281 v 1.411088 c 0,1.619277 0.4158,1.812858 1.090682,0.507783 z m 0.02197,-5.839837 c -0.11576,-0.364729 -0.395917,-0.591982 -0.62257,-0.505007 -0.731168,0.280576 -1.180973,-0.485226 -0.637642,-1.085599 0.431709,-0.477033 0.431239,-0.578029 -0.0044,-0.939551 -0.712654,-0.591451 -0.597744,-0.9667 0.296026,-0.9667 0.431254,0 0.935149,-0.252 1.119765,-0.56 0.319681,-0.533334 0.356404,-0.533334 0.771178,0 0.239532,0.308 0.719638,0.56 1.066902,0.56 0.946326,0 1.123265,0.357549 0.511478,1.033567 -0.448783,0.4959 -0.469431,0.654046 -0.114069,0.873673 0.566569,0.350158 0.188236,1.336983 -0.422699,1.102546 -0.275013,-0.105533 -0.614099,0.09437 -0.823372,0.485395 -0.452821,0.846105 -0.872421,0.846721 -1.140628,0.0017 z m 5.598859,0.0073 c -0.212879,-0.397771 -0.552133,-0.600281 -0.828167,-0.494357 -0.608859,0.233641 -0.942533,-0.648303 -0.463607,-1.225373 0.254254,-0.306357 0.265542,-0.512821 0.0358,-0.65481 C 27.84708,28.248834 28.146757,27.52 28.96,27.52 c 0.497777,0 0.8,-0.181334 0.8,-0.48 0,-0.264 0.148519,-0.48 0.330043,-0.48 0.181523,0 0.41293,0.216 0.514236,0.48 0.101306,0.264 0.528787,0.48 0.949957,0.48 0.814413,0 1.008234,0.58953 0.395326,1.202437 -0.280584,0.280584 -0.273902,0.486757 0.02755,0.849983 0.52334,0.630586 0.187733,1.130771 -0.61743,0.920216 C 30.922296,30.378257 30.72,30.482936 30.72,30.823792 c 0,0.808503 -0.578918,0.928264 -0.968486,0.200351 z m 5.324298,-0.166208 c -0.124583,-0.324657 -0.409847,-0.433131 -0.807306,-0.306983 -0.852378,0.270535 -1.16159,-0.389301 -0.516483,-1.102137 0.499958,-0.552447 0.499075,-0.610804 -0.01357,-0.897699 -0.784045,-0.438775 -0.245719,-1.127422 0.696467,-0.890948 0.617568,0.154999 0.765091,0.06745 0.765091,-0.454072 0,-0.749745 0.804109,-0.873903 1.075722,-0.166096 0.101305,0.264 0.47671,0.48 0.834237,0.48 0.721472,0 0.858003,0.624039 0.266041,1.216 -0.298665,0.298666 -0.298665,0.469333 0,0.768 0.630931,0.630931 0.470903,1.286709 -0.257577,1.055499 -0.4264,-0.135334 -0.706189,-0.03524 -0.834234,0.298436 -0.105977,0.276136 -0.377861,0.502064 -0.604201,0.502064 -0.226339,0 -0.498224,-0.225928 -0.604188,-0.502064 z"
       style="fill:#282c34;fill-opacity:1;stroke-width:0.32" />
  </g>
</svg>
