<?xml version="1.0" encoding="UTF-8" standalone="no"?>
<svg
   xmlns:dc="http://purl.org/dc/elements/1.1/"
   xmlns:cc="http://creativecommons.org/ns#"
   xmlns:rdf="http://www.w3.org/1999/02/22-rdf-syntax-ns#"
   xmlns:svg="http://www.w3.org/2000/svg"
   xmlns="http://www.w3.org/2000/svg"
   xmlns:sodipodi="http://sodipodi.sourceforge.net/DTD/sodipodi-0.dtd"
   xmlns:inkscape="http://www.inkscape.org/namespaces/inkscape"
   inkscape:export-ydpi="278.125"
   inkscape:export-xdpi="278.125"
   inkscape:export-filename="C:\Users\kiera\Documents\GitHub\blackc4t\images\shorticons\pke.png"
   inkscape:version="1.0 (4035a4fb49, 2020-05-01)"
   sodipodi:docname="pke.svg"
   viewBox="0 0 61.439999 61.439999"
   height="61.439999"
   width="61.439999"
   id="svg2614"
   version="1.1">
  <metadata
     id="metadata2620">
    <rdf:RDF>
      <cc:Work
         rdf:about="">
        <dc:format>image/svg+xml</dc:format>
        <dc:type
           rdf:resource="http://purl.org/dc/dcmitype/StillImage" />
        <dc:title></dc:title>
      </cc:Work>
    </rdf:RDF>
  </metadata>
  <defs
     id="defs2618" />
  <sodipodi:namedview
     inkscape:current-layer="g2622"
     inkscape:window-maximized="1"
     inkscape:window-y="-9"
     inkscape:window-x="-9"
     inkscape:cy="30.719999"
     inkscape:cx="30.01677"
     inkscape:zoom="13.509115"
     showgrid="false"
     id="namedview2616"
     inkscape:window-height="1001"
     inkscape:window-width="1920"
     inkscape:pageshadow="2"
     inkscape:pageopacity="0"
     guidetolerance="10"
     gridtolerance="10"
     objecttolerance="10"
     borderopacity="1"
     bordercolor="#666666"
     pagecolor="#ffffff" />
  <g
     id="g2622"
     inkscape:label="Image"
     inkscape:groupmode="layer">
    <path
       id="path3189"
       d="M 26.029303,58.428636 C 15.423714,56.401983 7.2547791,49.422886 3.8009465,39.437926 2.7364233,36.360412 2.7224286,36.247417 2.7212222,30.719999 2.7200207,25.21494 2.737859,25.06846 3.7734035,22.08 5.31067,17.643627 7.3374191,14.422581 10.72,11.04 16.319005,5.4409942 22.740918,2.7613033 30.56,2.7613033 c 7.819081,0 14.240994,2.6796909 19.839999,8.2786967 3.381501,3.3815 5.450096,6.666886 6.850438,10.88 2.033802,6.118964 2.033802,11.481033 0,17.599999 -2.553423,7.682314 -8.716681,14.181674 -16.331727,17.222342 -4.650176,1.856804 -10.518908,2.521466 -14.889407,1.686295 z"
       style="fill:#f5f5f5;fill-opacity:1;stroke-width:0.32" />
    <path
       id="path3187"
       d="m 19.691134,41.886851 c -1.898512,-1.666919 -1.751691,-1.989216 3.906055,-8.574496 l 5.03719,-5.86299 0.02926,-2.124683 C 28.726018,20.794823 31.636435,17.92 36.159999,17.92 c 4.693805,0 7.603687,3.103896 7.305155,7.792226 -0.160624,2.522561 -1.257881,4.30357 -3.442697,5.588005 -1.367347,0.803855 -1.724746,0.861855 -5.495498,0.891861 -2.218172,0.01766 -4.18543,0.126272 -4.371682,0.241383 -0.236985,0.146464 -0.231838,0.492243 0.01715,1.151875 0.300033,0.79488 0.260322,1.04807 -0.253417,1.615747 -0.502281,0.555014 -0.829842,0.635885 -1.866333,0.460771 l -1.25713,-0.212393 0.20667,1.101648 c 0.261641,1.394665 -0.417334,2.080742 -2.202214,2.225248 -1.240933,0.100467 -1.285493,0.144784 -1.459983,1.452115 -0.199051,1.49135 -1.047227,2.651513 -1.938477,2.651513 -0.318599,0 -1.08828,-0.446918 -1.710405,-0.993148 z M 38.975999,24.896 c 0.2112,-0.2112 0.384,-0.7584 0.384,-1.216 0,-0.4576 -0.1728,-1.0048 -0.384,-1.216 -0.2112,-0.2112 -0.7584,-0.384 -1.216,-0.384 -0.4576,0 -1.0048,0.1728 -1.216,0.384 -0.495014,0.495013 -0.495014,1.936986 0,2.432 0.495015,0.495013 1.936986,0.495013 2.432,0 z"
       style="fill:#282c34;fill-opacity:1;stroke-width:0.32" />
  </g>
</svg>
