<svg xmlns="http://www.w3.org/2000/svg" xmlns:svg="http://www.w3.org/2000/svg" id="svg3174" width="853.333" height="853.333" version="1.1" viewBox="0 0 853.333 853.333"><metadata id="metadata3180"/><g id="g3182"><g id="g3747"><path id="path3751" d="m 345.99999,687.77521 c -12.24185,-4.12423 -21.55377,-12.34307 -24.66479,-21.76951 -2.13956,-6.48293 -1.10658,-24.81492 1.78746,-31.7216 2.62726,-6.27002 15.69612,-20.14389 23.01846,-24.43636 6.39388,-3.74818 21.79576,-9.38753 33.1922,-12.15321 5.72415,-1.38913 21.65516,-2.23757 56,-2.98237 52.75183,-1.14399 56.07659,-1.6214 68.3324,-9.81219 8.69473,-5.81087 15.5218,-18.46501 15.60739,-28.92869 0.12453,-15.22184 -10.26554,-26.50237 -32.60646,-35.40109 -14.75746,-5.87811 -15.29465,-6.2542 -15.75764,-11.03223 -0.23337,-2.40836 0.2901,-5.23964 1.16326,-6.29173 3.55093,-4.2786 29.46985,-0.60855 42.4429,6.00981 2.96871,1.51452 9.29054,6.39528 14.04851,10.84613 12.30092,11.5069 14.44567,17.6741 13.86931,39.88089 -0.5136,19.78911 -1.95507,23.63159 -13.04474,34.77298 -8.47073,8.51024 -18.54024,13.74969 -30.83644,16.04508 -5.2099,0.97256 -25.2253,1.7275 -51.21849,1.93188 -46.64296,0.36674 -53.08712,1.12997 -72.38918,8.57364 -15.31984,5.90796 -21.66138,11.33918 -28.38083,24.30689 -3.31405,6.39571 -3.24015,10.49972 0.26944,14.96143 3.29705,4.19153 12.18023,10.09169 15.19387,10.09169 3.41565,0 11.70236,-4.80385 15.88949,-9.21123 3.47,-3.65252 4.76868,-4.1221 11.4,-4.1221 4.11613,0 8.20388,0.72 9.08388,1.6 0.88,0.88 1.6,4.68608 1.6,8.45794 0,6.54617 -0.28793,7.09972 -6.33333,12.17579 -8.73327,7.33294 -16.76219,9.78988 -31.57086,9.661 -6.65269,-0.0579 -13.89581,-0.71167 -16.09581,-1.45284 z m 71.02025,-150.4837 c -28.04404,-4.3665 -59.37498,-28.55222 -73.35358,-56.62486 -9.46587,-19.0099 -11.96518,-56.12441 -5.6566,-83.99999 3.7604,-16.61602 12.11656,-34.85704 24.64592,-53.80066 16.07904,-24.31052 25.38718,-43.20787 25.32173,-51.40807 -0.012,-1.5352 -2.81713,-7.89127 -6.23307,-14.1246 -11.07921,-20.21714 -12.10986,-22.90992 -13.77876,-36 -1.68364,-13.2057 -1.08345,-18.86575 4.66572,-44 1.62388,-7.09928 1.7105,-10.64882 0.47894,-19.62667 -1.77479,-12.93788 -0.81684,-15.04 6.85374,-15.04 8.50762,0 13.71011,2.68802 23.36904,12.07428 l 9.33334,9.06987 13.99999,-0.71203 c 9.86,-0.50146 16.45494,-0.13415 22.30172,1.24213 l 8.30174,1.95415 2.27472,-3.47166 c 1.2511,-1.90943 3.56909,-7.07582 5.15108,-11.48087 l 2.87636,-8.0092 7.24269,-0.39079 c 6.53292,-0.35249 7.61281,-0.004 11.01951,3.55136 6.18445,6.45518 8.95805,18.83331 9.74853,43.50609 0.86217,26.91096 -1.45093,38.09091 -12.50185,60.42503 l -7.46738,15.09169 2.19311,7.88818 c 2.58565,9.30008 2.83072,17.42415 0.59311,19.66177 -2.09731,2.0973 -10.6281,2.05489 -13.40571,-0.0667 -6.06796,-4.63475 -10.64853,-28.9836 -7.88052,-41.89034 0.79088,-3.68776 4.1474,-12.46487 7.45892,-19.50468 6.92381,-14.71903 11.42731,-30.50771 11.42731,-40.06274 0,-6.33102 -0.1072,-6.52518 -2.43832,-4.41556 -3.53507,3.19919 -15.64414,2.90494 -23.50232,-0.57112 -7.64442,-3.38149 -15.41212,-3.53678 -23.39269,-0.46766 -3.3,1.26908 -9.79403,2.57162 -14.43118,2.89453 -9.48862,0.66075 -11.92384,-0.67979 -16.31501,-8.98103 l -2.46929,-4.66806 -0.0821,6.66666 c -0.0452,3.66667 -1.00297,10.86667 -2.12852,16 -3.60001,16.41882 -3.66796,17.79378 -1.26936,25.68358 1.27911,4.20737 4.73202,11.70692 7.67312,16.66566 7.86268,13.25655 8.90207,17.17271 8.9312,33.65076 0.0419,23.71715 -2.31321,30.05068 -24.58352,66.11091 -14.09174,22.81744 -21.10174,39.67533 -25.31228,60.87186 -3.22094,16.21477 -0.0923,32.29468 10.31066,52.99123 10.72109,21.32962 29.54464,35.05386 57.6696,42.04689 12.22883,3.0406 14.89069,3.07137 39.65739,0.45864 11.19887,-1.18141 14.34927,1.198 14.34927,10.83763 0,6.14217 -0.4604,7.51121 -3,8.92073 -3.67609,2.04031 -47.27831,2.82364 -58.64641,1.05363 z" style="fill:#a9b0bd;stroke-width:1.33333"/><path id="path3749" d="M 0,426.66665 V 0 H 426.66665 853.33331 V 426.66665 853.33331 H 426.66665 0 Z m 380.76247,260.44244 c 3.61397,-1.22332 9.42085,-4.61724 12.90419,-7.54204 6.0454,-5.07607 6.33333,-5.62962 6.33333,-12.17579 0,-3.77186 -0.72,-7.57794 -1.6,-8.45794 -0.88,-0.88 -4.96775,-1.6 -9.08388,-1.6 -6.63132,0 -7.93,0.46958 -11.4,4.1221 -4.18713,4.40738 -12.47384,9.21123 -15.88949,9.21123 -3.01364,0 -11.89682,-5.90016 -15.19387,-10.09169 -3.50959,-4.46171 -3.58349,-8.56572 -0.26944,-14.96143 6.71945,-12.96771 13.06099,-18.39893 28.38083,-24.30689 19.30206,-7.44367 25.74622,-8.2069 72.38918,-8.57364 25.99319,-0.20438 46.00859,-0.95932 51.21849,-1.93188 12.2962,-2.29539 22.36571,-7.53484 30.83644,-16.04508 11.08967,-11.14139 12.53114,-14.98387 13.04474,-34.77298 0.57636,-22.20679 -1.56839,-28.37399 -13.86931,-39.88089 -4.75797,-4.45085 -11.0798,-9.33161 -14.04851,-10.84613 -12.97305,-6.61836 -38.89197,-10.28841 -42.4429,-6.00981 -0.87316,1.05209 -1.39663,3.88337 -1.16326,6.29173 0.46299,4.77803 1.00018,5.15412 15.75764,11.03223 22.34092,8.89872 32.73095,20.17925 32.60646,35.40109 -0.0856,10.46368 -6.91266,23.11782 -15.60739,28.92869 -12.25581,8.19079 -15.58057,8.6682 -68.3324,9.81219 -34.34484,0.7448 -50.27585,1.59324 -56,2.98237 -11.39644,2.76568 -26.79832,8.40503 -33.1922,12.15321 -7.32234,4.29247 -20.3912,18.16634 -23.01846,24.43636 -2.89404,6.90668 -3.92702,25.23867 -1.78746,31.7216 3.11102,9.42644 12.42294,17.64528 24.66479,21.76951 6.63461,2.23517 27.36496,1.83793 34.76248,-0.66612 z m 94.90418,-150.87121 c 2.5396,-1.40952 3,-2.77856 3,-8.92073 0,-9.63963 -3.1504,-12.01904 -14.34926,-10.83763 -24.76671,2.61273 -27.42856,2.58196 -39.6574,-0.45864 -28.12496,-6.99303 -46.94851,-20.71727 -57.6696,-42.04689 -10.40288,-20.69655 -13.5316,-36.77646 -10.31065,-52.99123 4.21053,-21.19653 11.22053,-38.05442 25.31228,-60.87186 22.2703,-36.06023 24.62545,-42.39376 24.58352,-66.11091 -0.0292,-16.47805 -1.06852,-20.39421 -8.9312,-33.65076 -2.94111,-4.95874 -6.39402,-12.45829 -7.67312,-16.66566 -2.3986,-7.8898 -2.33066,-9.26476 1.26936,-25.68358 1.12554,-5.13333 2.08337,-12.33333 2.12852,-16 l 0.0821,-6.66666 2.46929,4.66806 c 4.39118,8.30124 6.82639,9.64178 16.31502,8.98103 4.63714,-0.32291 11.13117,-1.62545 14.43117,-2.89453 7.98057,-3.06912 15.74828,-2.91383 23.39269,0.46766 7.85819,3.47606 19.96725,3.77031 23.50232,0.57112 2.33111,-2.10962 2.43832,-1.91546 2.43832,4.41556 0,9.55503 -4.50349,25.34371 -11.42731,40.06274 -3.31152,7.03981 -6.66804,15.81692 -7.45892,19.50468 -2.76801,12.90674 1.81256,37.25559 7.88052,41.89034 2.77762,2.12156 11.3084,2.16397 13.40571,0.0667 2.23761,-2.23762 1.99255,-10.36169 -0.59311,-19.66177 l -2.1931,-7.88818 7.46737,-15.09169 c 11.05092,-22.33412 13.36403,-33.51407 12.50185,-60.42503 -0.79048,-24.67278 -3.56408,-37.05091 -9.74853,-43.50609 -3.40669,-3.55582 -4.48659,-3.90385 -11.01951,-3.55136 l -7.24269,0.39079 -2.87636,8.0092 c -1.58199,4.40505 -3.89997,9.57144 -5.15108,11.48087 l -2.27472,3.47166 -8.30173,-1.95415 c -5.84684,-1.37628 -12.44178,-1.74359 -22.30178,-1.24213 l -13.99999,0.71203 -9.33334,-9.06987 c -9.65893,-9.38626 -14.86142,-12.07428 -23.36904,-12.07428 -7.67058,0 -8.62853,2.10212 -6.85374,15.04 1.23156,8.97785 1.14494,12.52739 -0.47894,19.62667 -5.74917,25.13425 -6.34936,30.7943 -4.66572,44 1.6689,13.09008 2.69955,15.78286 13.77876,36 3.41594,6.23333 6.22082,12.5894 6.23307,14.1246 0.0655,8.2002 -9.24269,27.09755 -25.32173,51.40807 -12.52936,18.94362 -20.88552,37.18464 -24.64592,53.80066 -6.30858,27.87558 -3.80927,64.99009 5.6566,83.99999 13.9786,28.07264 45.30954,52.25836 73.35358,56.62486 11.36811,1.77001 54.97032,0.98668 58.64641,-1.05363 z" style="fill:#272b33;stroke-width:1.33333"/></g></g></svg>