<svg xmlns="http://www.w3.org/2000/svg" width="512" height="512" desc="Created with imagetracer.js version 1.2.5" version="1.1"><path d="M 220.5 58 L 230.5 61 L 244.5 74 L 270.5 74 L 280 76 L 287 59 L 297.5 59 L 302 63.5 L 305 70.5 L 306 81.5 L 307 82.5 L 307 112.5 L 302 130.5 L 292 150.5 L 295 159.5 L 295 169.5 L 293.5 171 L 285.5 171 Q 277 160.5 279 139.5 L 290 113.5 L 293 102.5 L 293 90 L 289.5 92 L 283.5 93 L 263.5 88 L 249.5 92 L 238.5 92 Q 233.4 88.6 231.5 82 L 229 101.5 L 227 106.5 L 227 116.5 L 240 144.5 L 240 169.5 L 238 177.5 L 231 191.5 Q 217.3 209.8 208 232.5 L 203 249.5 L 202 266.5 Q 206.5 292 221.5 307 L 235.5 317 L 247.5 322 L 259.5 325 L 277.5 325 L 278.5 324 L 291.5 324 L 294 326.5 L 295 331.5 L 292.5 338 Q 287.7 336.7 286.5 339 L 249.5 339 Q 220.7 332.3 205 312.5 Q 194.6 301.9 190 285.5 L 188 275.5 L 187 255.5 L 188 254.5 L 189 236.5 L 194 219.5 L 203 201.5 L 223 169.5 L 227 159.5 L 227 151.5 L 214 126.5 L 212 116.5 L 212 101.5 L 217 80.5 L 217 71.5 L 216 70.5 L 216 60.5 L 220.5 58 Z"/><path d="M 291.5 313 L 304.5 313 L 319.5 317 Q 330.4 323.1 338 332.5 L 342 341.5 L 342 366.5 Q 338.7 378.7 329.5 385 Q 321.6 391.6 309.5 394 L 298.5 394 L 297.5 395 L 248.5 395 L 247.5 396 L 230.5 397 L 208.5 405 L 199 413.5 L 194 422.5 L 194 429.5 L 198.5 435 L 204.5 439 L 210.5 439 Q 217.9 435.9 222.5 430 L 228.5 429 L 235 431.5 L 236 436.5 L 235 441.5 L 230.5 446 L 218.5 452 L 196.5 452 Q 185.9 448.6 180 440.5 L 177 434.5 L 177 417.5 Q 181.3 403.3 192.5 396 Q 205.1 387.6 222.5 384 L 300.5 381 Q 314.4 378.4 321 368.5 Q 326.7 361.7 326 348.5 Q 323.6 338.9 316.5 334 L 290 320.5 Q 288.5 314.5 291.5 313 Z"/></svg>